<?xml version="1.0" encoding="UTF-8" standalone="no"?>
<!-- Created with Inkscape (http://www.inkscape.org/) -->

<svg
   width="400.52188"
   height="404.65866"
   viewBox="0 0 105.97141 107.06594"
   version="1.1"
   id="svg5"
   xml:space="preserve"
   inkscape:export-filename="bitmap.svg"
   inkscape:export-xdpi="69.509308"
   inkscape:export-ydpi="69.509308"
   xmlns:inkscape="http://www.inkscape.org/namespaces/inkscape"
   xmlns:sodipodi="http://sodipodi.sourceforge.net/DTD/sodipodi-0.dtd"
   xmlns="http://www.w3.org/2000/svg"
   xmlns:svg="http://www.w3.org/2000/svg"><sodipodi:namedview
     id="namedview7"
     pagecolor="#ffffff"
     bordercolor="#000000"
     borderopacity="0.25"
     inkscape:showpageshadow="2"
     inkscape:pageopacity="0.0"
     inkscape:pagecheckerboard="0"
     inkscape:deskcolor="#d1d1d1"
     inkscape:document-units="mm"
     showgrid="false"
     showguides="true" /><defs
     id="defs2" /><g
     inkscape:label="Camada 1"
     inkscape:groupmode="layer"
     id="layer1"
     transform="translate(-70.434778,-129.32504)"><g
       id="g6376"
       transform="translate(11.653184,35.466224)"><g
         id="g7183"
         style="fill:#c1c1c1;fill-opacity:0.600746"
         inkscape:export-filename="g7183.svg"
         inkscape:export-xdpi="96"
         inkscape:export-ydpi="96"
         transform="matrix(0.23980442,0,0,0.23980442,44.685507,71.351067)"><path
           style="fill:#c1c1c1;fill-opacity:0.600746;stroke:none;stroke-width:1.5;stroke-linecap:round;stroke-linejoin:round;stroke-opacity:1;paint-order:markers fill stroke"
           d="M 161.33965,150.76538 H 129.1426 c -1.23916,0 -2.24956,1.25972 -2.41415,1.87398 -0.97481,3.58148 -4.31245,11.04586 -15.19984,11.04586 -10.90916,0 -14.715918,-7.49426 -15.910926,-11.06729 -0.290734,-1.0297 -1.183103,-1.85255 -2.558878,-1.85255 H 62.158625 c -2.461309,0 -3.27966,0.8358 -3.27966,4.22089 0,11.96841 13.276296,45.93848 53.201315,45.93848 39.75108,0 52.67272,-33.62832 52.67272,-45.77933 -0.008,-3.30427 -1.48901,-4.32505 -3.41335,-4.38004 z"
           id="path1765"
           sodipodi:nodetypes="cccsccccscc" /><path
           style="fill:#c1c1c1;fill-opacity:0.600746;stroke:none;stroke-width:1.5;stroke-linecap:round;stroke-linejoin:round;stroke-opacity:1;paint-order:markers fill stroke"
           d="m 161.24227,144.0182 h -32.19705 c -1.23916,0 -2.24956,-1.25972 -2.41415,-1.87398 -0.97481,-3.58148 -4.31245,-11.04586 -15.19983,-11.04586 -10.90916,0 -14.71592,7.49426 -15.910928,11.06729 -0.290734,1.0297 -1.183103,1.85255 -2.558878,1.85255 H 62.061253 c -2.461309,0 -3.27966,-0.8358 -3.27966,-4.22089 0,-11.96841 13.276296,-45.938481 53.201317,-45.938481 39.75107,0 52.67271,33.628321 52.67271,45.779331 -0.008,3.30427 -1.48901,4.32505 -3.41335,4.38004 z"
           id="path1765-3"
           sodipodi:nodetypes="cccsccccscc" /><circle
           style="fill:#c1c1c1;fill-opacity:0.600746;stroke:none;stroke-width:2.48612;stroke-linecap:round;stroke-linejoin:round;stroke-opacity:1;paint-order:markers fill stroke"
           id="path7178"
           cx="110.8953"
           cy="147.24815"
           r="11.336525" /></g></g></g></svg>
